<svg xmlns="http://www.w3.org/2000/svg" viewBox="0 0 414.07 381.72"><defs><style>.cls-1{isolation:isolate;}.cls-2,.cls-5,.cls-9{opacity:0.5;}.cls-3,.cls-5{fill:#ffe4e1;}.cls-4{fill:#fff;}.cls-6{opacity:0.2;}.cls-7,.cls-8{fill:#fdb2b6;}.cls-8{mix-blend-mode:multiply;}.cls-9{fill:#719dfc;}</style></defs><g class="cls-1"><g id="OBJECTS"><g class="cls-2"><path class="cls-3" d="M276.4,99a3.11,3.11,0,0,1-1.46,1.85,3,3,0,0,1-2.44.27L236,90.6a3.11,3.11,0,0,1-2.18-3.87,3.26,3.26,0,0,1,1.47-1.89l.39-.3A18.12,18.12,0,0,0,240.24,81a25,25,0,0,0,4.53-9.28A15,15,0,0,1,251,63.12a15.43,15.43,0,0,1,10.21-2.61l.58-2a3,3,0,0,1,1.51-1.88,3.1,3.1,0,0,1,4.28,1.23,3,3,0,0,1,.28,2.4l-.57,2a15.43,15.43,0,0,1,7.26,7.65,15.06,15.06,0,0,1,.65,10.57A25,25,0,0,0,274,90.76,18.61,18.61,0,0,0,276,96.15a2.15,2.15,0,0,0,.18.46A3.31,3.31,0,0,1,276.4,99Zm-6-3.42q-2.56-6.81.18-16.31l0-.09a11.07,11.07,0,0,0-18.31-11,11,11,0,0,0-3,4.91l0,.09q-2.75,9.5-8.53,13.9ZM247.87,102a6.06,6.06,0,0,1-.56-4.84l12.16,3.5a6,6,0,0,1-3.05,3.8,6.32,6.32,0,0,1-8.55-2.46Z" transform="translate(-37.63 -36.57)"/></g><g class="cls-2"><path class="cls-3" d="M400.23,186l1.85,6.05,1.89-.58a1.2,1.2,0,0,1,.91.09,1.16,1.16,0,0,1,.58.7l1.15,3.78a1.13,1.13,0,0,1-.08.9,1.18,1.18,0,0,1-.7.58l-1.89.58,1.85,6,1.89-.58a1.13,1.13,0,0,1,.9.08,1.18,1.18,0,0,1,.58.7l1.15,3.78a1.15,1.15,0,0,1-.08.91,1.11,1.11,0,0,1-.7.57l-1.89.58,1.39,4.54a4.61,4.61,0,0,1-.34,3.62,4.55,4.55,0,0,1-2.81,2.3l-30.24,9.26a4.55,4.55,0,0,1-3.61-.34,4.6,4.6,0,0,1-2.31-2.81l-12-39.3a4.53,4.53,0,0,1,.34-3.62,4.58,4.58,0,0,1,2.8-2.31l30.24-9.25a4.7,4.7,0,0,1,5.92,3.14l1.39,4.54,1.89-.58a1.12,1.12,0,0,1,.9.08,1.14,1.14,0,0,1,.58.71l1.16,3.78a1.09,1.09,0,0,1-.09.9,1.13,1.13,0,0,1-.7.58Zm-7.77-9.19-30.24,9.26,12,39.31,30.23-9.26Zm-15.53,38.91a1.67,1.67,0,0,1-1-1.09l-.55-1.79a5.21,5.21,0,0,1,.65-4.44,6.9,6.9,0,0,1,4-3,3.63,3.63,0,0,1,1.31-.09,10.66,10.66,0,0,0,3.17-.46,10.37,10.37,0,0,0,2.88-1.4,5,5,0,0,1,1.14-.66,6.92,6.92,0,0,1,5,.24,5.17,5.17,0,0,1,3,3.31l.55,1.79a1.69,1.69,0,0,1-.22,1.47,2.26,2.26,0,0,1-1.31,1l-17,5.21A2.28,2.28,0,0,1,376.93,215.73Zm1.63-15.12a6.32,6.32,0,0,1,1.09-11.6,6.32,6.32,0,1,1-1.09,11.6Z" transform="translate(-37.63 -36.57)"/></g><g class="cls-2"><path class="cls-3" d="M120.91,207.26a10.4,10.4,0,0,0,1.66,1.29,2,2,0,0,1,.8,1.06,2.11,2.11,0,0,1,0,1.29,2.6,2.6,0,0,1-.64,1.13,2,2,0,0,1-1.14.62,22.28,22.28,0,0,1-12.85-1.45,26.33,26.33,0,0,1-5.7,1.79,24.23,24.23,0,0,1-11.71-.46A17.37,17.37,0,0,1,82.73,207c-1,.06-2,.08-2.9.06a22.11,22.11,0,0,1-11.41,6.11,2,2,0,0,1-1.29-.16,2.75,2.75,0,0,1-1-.81,1.89,1.89,0,0,1-.39-1.23,2.29,2.29,0,0,1,.37-1.23,17.08,17.08,0,0,0,1-1.85,37.45,37.45,0,0,0,1.6-4.23,13.26,13.26,0,0,1-6.1-8.7,12.87,12.87,0,0,1,1.23-8.28,18.86,18.86,0,0,1,6.24-7.08,26,26,0,0,1,21.5-3.58,17.31,17.31,0,0,1,8.7,5.48,23.88,23.88,0,0,1,9.21,1.1,17.8,17.8,0,0,1,7.22,4.3,12.58,12.58,0,0,1,3.59,6.65,13.19,13.19,0,0,1-2.45,10.33A37,37,0,0,0,120.91,207.26ZM80,202.33A20.56,20.56,0,0,0,92.31,199,15.31,15.31,0,0,0,97.22,194a8,8,0,0,0-2.06-10.78,15.56,15.56,0,0,0-6.44-2.89,20.89,20.89,0,0,0-15.43,3,15.44,15.44,0,0,0-4.92,5.06,8.3,8.3,0,0,0-1.1,5.8,8.65,8.65,0,0,0,4.1,5.65l2.88,1.87-1,3.4-.51,1.51a17.49,17.49,0,0,0,3.78-2.84L78,202.31Zm35.61-7.89a8.62,8.62,0,0,0-4.31-5.71,17.16,17.16,0,0,0-8.62-2.43l.28,1a12.58,12.58,0,0,1-.9,7.62,18.15,18.15,0,0,1-5.21,6.68,23.26,23.26,0,0,1-8.31,4.36,15.09,15.09,0,0,0,6.16,2.49,20,20,0,0,0,7.48-.07,19.66,19.66,0,0,0,4.64-1.5l1.87-.76,1.85.75a16.84,16.84,0,0,0,4.57,1.24l-1.06-1.31L112,204l1.88-2.77A8.71,8.71,0,0,0,115.63,194.44Z" transform="translate(-37.63 -36.57)"/></g><circle class="cls-3" cx="128.37" cy="109.55" r="43.42" transform="translate(-45.16 173.04) rotate(-76.84)"/><path class="cls-4" d="M149.37,116a9.36,9.36,0,0,1-.24,3.39,9.08,9.08,0,0,1-1.4,3.09,8.67,8.67,0,0,1-2.71,6.59c-1.87,1.74-4.62,2.61-8.23,2.61h-2.13a29.92,29.92,0,0,1-7.45-.87,39.86,39.86,0,0,1-4.84-1.65l-2.52-1a8.4,8.4,0,0,0-2.42-.38,3.31,3.31,0,0,1-1.11,1.64,2.91,2.91,0,0,1-1.89.68h-6.19a3.14,3.14,0,0,1-3.1-3.1V103.83a3.14,3.14,0,0,1,3.1-3.1h9.58a33.81,33.81,0,0,0,3.29-3.92,45.46,45.46,0,0,1,3.39-4.11,7.58,7.58,0,0,0,.87-2.81,21.64,21.64,0,0,1,1.74-5,4.73,4.73,0,0,1,4.26-2.71,9.2,9.2,0,0,1,6.78,2.41q2.5,2.63,2.51,7.75a12.14,12.14,0,0,1-.87,4.45h3.49a7.86,7.86,0,0,1,5.9,2.52,8.12,8.12,0,0,1,2.42,5.8,9.41,9.41,0,0,1-1.36,4.84A8.65,8.65,0,0,1,149.37,116ZM113,122.31a2.33,2.33,0,1,0,.68,1.65A2.24,2.24,0,0,0,113,122.31Zm32.86-10.5a4.19,4.19,0,0,0-1-3c.46,0,.92-.39,1.41-1.16a4.67,4.67,0,0,0,.72-2.52,3.64,3.64,0,0,0-1.06-2.51,3.38,3.38,0,0,0-2.61-1.16H133.21a6.72,6.72,0,0,1,.48-2.42,13.48,13.48,0,0,1,.87-2,20.27,20.27,0,0,0,1-2.13,6.75,6.75,0,0,0,.49-2.51,8.79,8.79,0,0,0-.58-3.68c-.71-1.23-2.07-1.84-4.07-1.84a5.71,5.71,0,0,0-.87,1.65,17.92,17.92,0,0,0-.48,2c-.26,1.29-.49,2.26-.68,2.9A7.32,7.32,0,0,1,127.69,96a38.7,38.7,0,0,0-2.8,3.48,37.91,37.91,0,0,1-3.2,4c-1.22,1.29-2.26,1.93-3.09,1.93h-1.07v18a14.92,14.92,0,0,1,3.58.48A34.39,34.39,0,0,1,124.6,125c1.93.65,3.42,1.1,4.45,1.36a20.43,20.43,0,0,0,5.13.67h3.58a5.42,5.42,0,0,0,4.16-1.45c1-1,1.39-2.68,1.06-4.93a3.8,3.8,0,0,0,1.65-2.38,4.05,4.05,0,0,0-.29-3.14A4.76,4.76,0,0,0,145.84,111.81Z" transform="translate(-37.63 -36.57)"/><circle class="cls-5" cx="377.58" cy="109.55" r="43.42" transform="translate(205.91 442.58) rotate(-86.25)"/><path class="cls-4" d="M389.32,117.17l2.74-2.74a.67.67,0,0,1,.77-.17.68.68,0,0,1,.43.69v12.41a4.1,4.1,0,0,1-4.11,4.11H359a4.1,4.1,0,0,1-4.11-4.11V97.23A4.1,4.1,0,0,1,359,93.12h23.45a.6.6,0,0,1,.6.43.67.67,0,0,1-.17.77l-2.74,2.74a.61.61,0,0,1-.43.17H359v30.13h30.13V117.6A.57.57,0,0,1,389.32,117.17Zm13.44-17.29-22.52,22.51-7.7.86a3.58,3.58,0,0,1-3.94-3.94l.86-7.7L392,89.1a5.06,5.06,0,0,1,7.11,0l3.68,3.68a5.07,5.07,0,0,1,0,7.1Zm-8.48,2.65-5-5L373.4,113.49l-.6,5.57,5.56-.6Zm5.57-6.84L396.17,92a.93.93,0,0,0-1.29,0l-2.65,2.65,5,5L399.85,97a.94.94,0,0,0,0-1.28Z" transform="translate(-37.63 -36.57)"/><circle class="cls-3" cx="63.56" cy="277.45" r="43.42"/><path class="cls-4" d="M114.34,291.25a26.59,26.59,0,0,1,9.61,9.61,26.15,26.15,0,0,1,0,26.31,26.51,26.51,0,0,1-9.61,9.61,26.15,26.15,0,0,1-26.31,0,26.51,26.51,0,0,1-9.61-9.61,26.15,26.15,0,0,1,0-26.31A26.59,26.59,0,0,1,88,291.25a26.15,26.15,0,0,1,26.31,0ZM91,296.45a20.48,20.48,0,0,0-7.41,7.41,20.12,20.12,0,0,0,0,20.31A20.33,20.33,0,0,0,91,331.58a20.12,20.12,0,0,0,20.31,0,20.41,20.41,0,0,0,7.41-7.41,20.19,20.19,0,0,0,0-20.31,20.56,20.56,0,0,0-7.41-7.41,20.19,20.19,0,0,0-20.31,0Zm24.78,11.37a1,1,0,0,1-.41.81L97.94,326a1.3,1.3,0,0,1-.92.41,1,1,0,0,1-.81-.41L87,316.76a1.28,1.28,0,0,1-.41-.92A1,1,0,0,1,87,315l2.33-2.33a1.1,1.1,0,0,1,.82-.31,1.45,1.45,0,0,1,.91.31l6,6.19,14.42-14.32a1.09,1.09,0,0,1,.81-.3,1.27,1.27,0,0,1,.92.4l2.23,2.24A1.26,1.26,0,0,1,115.81,307.82Z" transform="translate(-37.63 -36.57)"/><path class="cls-3" d="M442,299.86a43.43,43.43,0,1,1-43.43-43.43A43.43,43.43,0,0,1,442,299.86Z" transform="translate(-37.63 -36.57)"/><path class="cls-4" d="M424.35,280.87a4.91,4.91,0,0,1,1.5,3.62v30.73a5.1,5.1,0,0,1-5.12,5.12H376.34a5.09,5.09,0,0,1-5.12-5.12V284.49a5.1,5.1,0,0,1,5.12-5.12h44.39A4.91,4.91,0,0,1,424.35,280.87Zm-48,3.62v4.38q3.74,3,14.4,11.31l1,.85a26.26,26.26,0,0,0,3.41,2.56,4.89,4.89,0,0,0,6.83,0,26.26,26.26,0,0,0,3.41-2.56l1-.85Q417,292,420.73,288.87v-4.38Zm44.39,30.73V295.38l-12.38,9.81a30.4,30.4,0,0,1-4.38,3.2,10.72,10.72,0,0,1-5.44,1.71,11.35,11.35,0,0,1-5.55-1.71,42,42,0,0,1-4.37-3.2l-12.27-9.81v19.84Z" transform="translate(-37.63 -36.57)"/><path class="cls-3" d="M298.63,154.42a3.25,3.25,0,0,1-.81-2.35,5.75,5.75,0,0,0-5.39-6.1,3.24,3.24,0,1,1,.41-6.47,12.25,12.25,0,0,1,11.45,13,3.24,3.24,0,0,1-5.66,1.94Z" transform="translate(-37.63 -36.57)"/><path class="cls-3" d="M309,155.07a3.23,3.23,0,0,1-.8-2.34,16.2,16.2,0,0,0-15.15-17.18,3.24,3.24,0,0,1,.4-6.47,22.68,22.68,0,0,1,21.22,24,3.25,3.25,0,0,1-5.67,1.94Z" transform="translate(-37.63 -36.57)"/><path class="cls-3" d="M319.46,155.72a3.25,3.25,0,0,1-.81-2.35,26.6,26.6,0,0,0-24.91-28.23,3.24,3.24,0,0,1,.4-6.47,33.1,33.1,0,0,1,31,35.12,3.24,3.24,0,0,1-5.66,1.93Z" transform="translate(-37.63 -36.57)"/><g class="cls-6"><path class="cls-3" d="M376.42,372a3.84,3.84,0,0,1,2.7-1.21,6.85,6.85,0,0,0,6.64-7,3.85,3.85,0,0,1,7.7-.23,14.55,14.55,0,0,1-14.12,15,3.86,3.86,0,0,1-2.92-6.49Z" transform="translate(-37.63 -36.57)"/><path class="cls-3" d="M376.79,384.41a3.8,3.8,0,0,1,2.69-1.21,19.25,19.25,0,0,0,18.68-19.8,3.85,3.85,0,0,1,7.7-.23A27,27,0,0,1,379.7,390.9a3.85,3.85,0,0,1-2.91-6.49Z" transform="translate(-37.63 -36.57)"/><path class="cls-3" d="M377.15,396.81a3.84,3.84,0,0,1,2.69-1.21A31.63,31.63,0,0,0,410.56,363a3.85,3.85,0,1,1,7.7-.23,39.35,39.35,0,0,1-38.2,40.49,3.85,3.85,0,0,1-2.91-6.49Z" transform="translate(-37.63 -36.57)"/></g><g class="cls-6"><path class="cls-3" d="M281.37,71a2.91,2.91,0,0,1,0-2.23,5.11,5.11,0,0,0-.05-4,5.16,5.16,0,0,0-2.85-2.77,2.92,2.92,0,0,1,2.16-5.42A11,11,0,0,1,286.76,71a2.92,2.92,0,0,1-5.39.07Z" transform="translate(-37.63 -36.57)"/><path class="cls-3" d="M290.1,74.52a2.94,2.94,0,0,1,0-2.24,14.59,14.59,0,0,0-8.16-18.94,2.92,2.92,0,1,1,2.15-5.43,20.43,20.43,0,0,1,11.43,26.53,2.92,2.92,0,0,1-5.39.08Z" transform="translate(-37.63 -36.57)"/><path class="cls-3" d="M298.83,78a2.92,2.92,0,0,1,0-2.23A24,24,0,0,0,285.38,44.6a2.92,2.92,0,1,1,2.15-5.42,29.81,29.81,0,0,1,16.7,38.74,2.92,2.92,0,0,1-5.4.07Z" transform="translate(-37.63 -36.57)"/></g><g class="cls-6"><path class="cls-3" d="M95.16,363.45a3.86,3.86,0,0,1,2.4,1.71,6.86,6.86,0,0,0,9.44,2.16,3.85,3.85,0,0,1,4.1,6.52A14.55,14.55,0,0,1,91,369.25a3.85,3.85,0,0,1,4.12-5.8Z" transform="translate(-37.63 -36.57)"/><path class="cls-3" d="M84.65,370.05a3.81,3.81,0,0,1,2.4,1.7,19.24,19.24,0,0,0,26.55,6.07,3.85,3.85,0,0,1,4.09,6.53,26.95,26.95,0,0,1-37.16-8.5,3.85,3.85,0,0,1,4.12-5.8Z" transform="translate(-37.63 -36.57)"/><path class="cls-3" d="M74.14,376.64a3.88,3.88,0,0,1,2.41,1.71,31.65,31.65,0,0,0,43.64,10,3.85,3.85,0,0,1,4.1,6.52A39.35,39.35,0,0,1,70,382.44a3.85,3.85,0,0,1,4.12-5.8Z" transform="translate(-37.63 -36.57)"/></g><path class="cls-3" d="M135.26,261.93H118.33v-4.15L124,252c1.63-1.7,2.69-2.87,3.19-3.49a7.94,7.94,0,0,0,1.05-1.6,3.59,3.59,0,0,0,.29-1.41,1.8,1.8,0,0,0-.59-1.43,2.41,2.41,0,0,0-1.66-.53,4.52,4.52,0,0,0-2.22.63,16.07,16.07,0,0,0-2.55,1.86L118.08,242a18.15,18.15,0,0,1,3-2.31,10.79,10.79,0,0,1,2.67-1.06,13,13,0,0,1,3.25-.37,9.86,9.86,0,0,1,4.05.8,6.4,6.4,0,0,1,2.76,2.27,5.91,5.91,0,0,1,1,3.32,8.84,8.84,0,0,1-.35,2.53,8.58,8.58,0,0,1-1.06,2.29,16,16,0,0,1-1.9,2.37q-1.2,1.24-5.07,4.73v.16h8.82Z" transform="translate(-37.63 -36.57)"/><path class="cls-3" d="M155.16,257.41h-2.57v4.52h-6.22v-4.52h-9.3v-4.63l9.7-14.18h5.82v14.1h2.57Zm-8.79-4.71V250q0-.77.06-2.07a12.92,12.92,0,0,1,.08-1.36h-.17a16.21,16.21,0,0,1-1.23,2.3l-2.58,3.84Z" transform="translate(-37.63 -36.57)"/><path class="cls-3" d="M169.19,261.93v-9.86c0-2.43-.72-3.64-2.15-3.64a2.42,2.42,0,0,0-2.26,1.28,9.13,9.13,0,0,0-.73,4.27v8h-6.24V237.1h6.24v3.52c0,1.6-.08,3.42-.25,5.46h.28a5.26,5.26,0,0,1,2.13-2,6.71,6.71,0,0,1,2.85-.57,6.22,6.22,0,0,1,4.72,1.75,6.75,6.75,0,0,1,1.68,4.89v11.76Z" transform="translate(-37.63 -36.57)"/><path class="cls-3" d="M350.43,61.67a1.7,1.7,0,0,1-1.18-2.09h0a1.69,1.69,0,0,1,2.09-1.18h0a1.69,1.69,0,0,1,1.18,2.09h0a1.71,1.71,0,0,1-1.64,1.24h0A1.68,1.68,0,0,1,350.43,61.67Zm-6.55-1.83a1.7,1.7,0,0,1-1.18-2.1h0a1.7,1.7,0,0,1,2.09-1.18h0a1.71,1.71,0,0,1,1.18,2.1h0a1.7,1.7,0,0,1-1.63,1.24h0A1.82,1.82,0,0,1,343.88,59.84Zm-194-1.56a1.69,1.69,0,0,1,1.4-1.94h0a1.69,1.69,0,0,1,2,1.4h0a1.7,1.7,0,0,1-1.41,1.95h0l-.27,0h0A1.69,1.69,0,0,1,149.92,58.28Zm6.7-1.09A1.71,1.71,0,0,1,158,55.24h0a1.68,1.68,0,0,1,1.94,1.4h0a1.69,1.69,0,0,1-1.4,2h0a1.23,1.23,0,0,1-.27,0h0A1.7,1.7,0,0,1,156.62,57.19ZM337.33,58a1.72,1.72,0,0,1-1.18-2.09h0a1.69,1.69,0,0,1,2.1-1.18h0a1.71,1.71,0,0,1,1.18,2.09h0a1.71,1.71,0,0,1-1.64,1.25h0A1.88,1.88,0,0,1,337.33,58Zm-174-1.91a1.71,1.71,0,0,1,1.4-2h0a1.7,1.7,0,0,1,2,1.4h0a1.69,1.69,0,0,1-1.39,2h0a.89.89,0,0,1-.28,0h0A1.69,1.69,0,0,1,163.33,56.1ZM170,55a1.72,1.72,0,0,1,1.41-2h0a1.71,1.71,0,0,1,1.95,1.4h0a1.71,1.71,0,0,1-1.4,2h0a1.33,1.33,0,0,1-.28,0h0A1.71,1.71,0,0,1,170,55Zm160.75,1.18a1.72,1.72,0,0,1-1.18-2.1h0a1.71,1.71,0,0,1,2.1-1.18h0a1.69,1.69,0,0,1,1.18,2.1h0a1.69,1.69,0,0,1-1.63,1.23h0A1.88,1.88,0,0,1,330.78,56.18Zm-154-2.28A1.69,1.69,0,0,1,178.14,52h0a1.71,1.71,0,0,1,2,1.4h0a1.71,1.71,0,0,1-1.4,2h0l-.28,0h0A1.69,1.69,0,0,1,176.75,53.9Zm147.5.44a1.7,1.7,0,0,1-1.19-2.09h0a1.71,1.71,0,0,1,2.09-1.18h0a1.69,1.69,0,0,1,1.18,2.09h0a1.69,1.69,0,0,1-1.63,1.25h0A1.37,1.37,0,0,1,324.25,54.34ZM183.46,52.8a1.68,1.68,0,0,1,1.4-1.95h0a1.71,1.71,0,0,1,1.95,1.41h0a1.71,1.71,0,0,1-1.41,2h0l-.27,0h0A1.69,1.69,0,0,1,183.46,52.8Zm6.7-1.1a1.68,1.68,0,0,1,1.41-1.94h0a1.71,1.71,0,0,1,2,1.4h0a1.71,1.71,0,0,1-1.41,2h0l-.27,0h0A1.7,1.7,0,0,1,190.16,51.7Zm127.54.81a1.69,1.69,0,0,1-1.18-2.09h0a1.69,1.69,0,0,1,2.1-1.17h0a1.71,1.71,0,0,1,1.19,2.08h0a1.72,1.72,0,0,1-1.65,1.25h0A1.83,1.83,0,0,1,317.7,52.51ZM196.87,50.6a1.7,1.7,0,0,1,1.4-1.94h0a1.7,1.7,0,0,1,1.95,1.4h0a1.69,1.69,0,0,1-1.4,1.95h0l-.28,0h0A1.69,1.69,0,0,1,196.87,50.6Zm6.7-1.09A1.72,1.72,0,0,1,205,47.56h0a1.69,1.69,0,0,1,2,1.4h0a1.71,1.71,0,0,1-1.41,1.95h0a1.23,1.23,0,0,1-.27,0h0A1.71,1.71,0,0,1,203.57,49.51Zm107.58,1.17A1.69,1.69,0,0,1,310,48.59h0a1.7,1.7,0,0,1,2.1-1.18h0a1.7,1.7,0,0,1,1.18,2.1h0a1.72,1.72,0,0,1-1.64,1.23h0A1.49,1.49,0,0,1,311.15,50.68ZM210.28,48.42a1.71,1.71,0,0,1,1.41-2h0a1.7,1.7,0,0,1,1.94,1.4h0a1.68,1.68,0,0,1-1.39,2h0a1.23,1.23,0,0,1-.27,0h0A1.7,1.7,0,0,1,210.28,48.42Zm94.33.43a1.7,1.7,0,0,1-1.18-2.1h0a1.7,1.7,0,0,1,2.09-1.17h0a1.69,1.69,0,0,1,1.18,2.09h0a1.71,1.71,0,0,1-1.64,1.25h0A1.76,1.76,0,0,1,304.61,48.85ZM217,47.32a1.71,1.71,0,0,1,1.4-2h0a1.71,1.71,0,0,1,2,1.4h0a1.7,1.7,0,0,1-1.39,2h0l-.29,0h0A1.7,1.7,0,0,1,217,47.32Zm6.7-1.1a1.7,1.7,0,0,1,1.41-1.95h0a1.71,1.71,0,0,1,2,1.4h0a1.73,1.73,0,0,1-1.41,2h0l-.28,0h0A1.7,1.7,0,0,1,223.69,46.22Zm74.37.81a1.72,1.72,0,0,1-1.18-2.1h0A1.69,1.69,0,0,1,299,43.75h0a1.69,1.69,0,0,1,1.18,2.1h0a1.67,1.67,0,0,1-1.63,1.23h0A2.58,2.58,0,0,1,298.06,47Zm-67.65-1.91a1.69,1.69,0,0,1,1.39-1.95h0a1.71,1.71,0,0,1,2,1.41h0a1.69,1.69,0,0,1-1.4,2h0l-.27,0h0A1.69,1.69,0,0,1,230.41,45.12Zm6.71-1.1a1.68,1.68,0,0,1,1.4-1.94h0a1.7,1.7,0,0,1,1.95,1.4h0a1.7,1.7,0,0,1-1.41,2h0l-.27,0h0A1.68,1.68,0,0,1,237.12,44Zm54.4,1.17a1.71,1.71,0,0,1-1.19-2.1h0a1.71,1.71,0,0,1,2.1-1.17h0A1.69,1.69,0,0,1,293.61,44h0A1.72,1.72,0,0,1,292,45.26h0A1.45,1.45,0,0,1,291.52,45.19Zm-47.7-2.27A1.69,1.69,0,0,1,245.23,41h0a1.69,1.69,0,0,1,1.94,1.4h0a1.69,1.69,0,0,1-1.4,1.95h0a1.23,1.23,0,0,1-.27,0h0A1.7,1.7,0,0,1,243.82,42.92Zm41.15.44a1.71,1.71,0,0,1-1.18-2.1h0a1.69,1.69,0,0,1,2.09-1.17h0a1.69,1.69,0,0,1,1.19,2.09h0a1.7,1.7,0,0,1-1.64,1.24h0A1.82,1.82,0,0,1,285,43.36Zm-34.44-1.52a1.71,1.71,0,0,1,1.4-2h0a1.69,1.69,0,0,1,1.95,1.4h0a1.7,1.7,0,0,1-1.4,1.95h0a1.37,1.37,0,0,1-.28,0h0A1.69,1.69,0,0,1,250.53,41.84Zm6.7-1.1a1.71,1.71,0,0,1,1.41-2h0a1.69,1.69,0,0,1,1.95,1.39h0a1.72,1.72,0,0,1-1.41,2h-.27A1.7,1.7,0,0,1,257.23,40.74Zm21.2.79a1.69,1.69,0,0,1-1.18-2.09h0a1.69,1.69,0,0,1,2.09-1.18h0a1.7,1.7,0,0,1,1.18,2.09h0a1.7,1.7,0,0,1-1.63,1.24h0A1.38,1.38,0,0,1,278.43,41.53Zm-14.49-1.89a1.69,1.69,0,0,1,1.4-2h0a1.69,1.69,0,0,1,2,1.4h0A1.7,1.7,0,0,1,265.9,41h0a1.24,1.24,0,0,1-.27,0h0A1.7,1.7,0,0,1,263.94,39.64Zm6.7-1.1a1.71,1.71,0,0,1,1.41-1.95h0A1.69,1.69,0,0,1,274,38h0a1.7,1.7,0,0,1-1.4,2h0l-.27,0h0A1.7,1.7,0,0,1,270.64,38.54Z" transform="translate(-37.63 -36.57)"/><path class="cls-3" d="M69.21,266.27A1.68,1.68,0,0,1,70,264h0a1.7,1.7,0,0,1,2.26.83h0a1.72,1.72,0,0,1-.83,2.26h0a1.87,1.87,0,0,1-.71.16h0A1.69,1.69,0,0,1,69.21,266.27Zm-2.87-6.16h0a1.72,1.72,0,0,1,.83-2.26h0a1.69,1.69,0,0,1,2.25.83h0a1.69,1.69,0,0,1-.82,2.26h0a1.66,1.66,0,0,1-.72.15h0A1.72,1.72,0,0,1,66.34,260.11ZM63.49,254a1.69,1.69,0,0,1,.82-2.26h0a1.7,1.7,0,0,1,2.26.83h0a1.69,1.69,0,0,1-.83,2.25h0a1.66,1.66,0,0,1-.71.16h0A1.7,1.7,0,0,1,63.49,254Zm-2.86-6.18a1.69,1.69,0,0,1,.83-2.25h0a1.69,1.69,0,0,1,2.25.83h0a1.69,1.69,0,0,1-.82,2.25h0a1.68,1.68,0,0,1-.72.16h0A1.69,1.69,0,0,1,60.63,247.77Zm-2.85-6.16a1.68,1.68,0,0,1,.82-2.25h0a1.7,1.7,0,0,1,2.26.82h0a1.71,1.71,0,0,1-.83,2.26h0a1.79,1.79,0,0,1-.71.16h0A1.69,1.69,0,0,1,57.78,241.61Zm-2.86-6.17a1.71,1.71,0,0,1,.83-2.26h0A1.7,1.7,0,0,1,58,234h0a1.68,1.68,0,0,1-.82,2.25h0a1.57,1.57,0,0,1-.72.16h0A1.7,1.7,0,0,1,54.92,235.44Zm-2.85-6.17a1.68,1.68,0,0,1,.82-2.25h0a1.7,1.7,0,0,1,2.26.83h0a1.69,1.69,0,0,1-.83,2.25h0a1.83,1.83,0,0,1-.71.16h0A1.67,1.67,0,0,1,52.07,229.27Zm-2.87-6.16a1.71,1.71,0,0,1,.83-2.26h0a1.7,1.7,0,0,1,2.26.82h0a1.7,1.7,0,0,1-.82,2.27h0a1.78,1.78,0,0,1-.71.15h0A1.74,1.74,0,0,1,49.2,223.11Zm-2.85-6.17a1.68,1.68,0,0,1,.82-2.25h0a1.7,1.7,0,0,1,2.26.82h0a1.7,1.7,0,0,1-.83,2.26h0a1.59,1.59,0,0,1-.71.15h0A1.68,1.68,0,0,1,46.35,216.94Zm-2.86-6.16a1.71,1.71,0,0,1,.83-2.26h0a1.69,1.69,0,0,1,2.25.83h0a1.68,1.68,0,0,1-.82,2.25h0a1.68,1.68,0,0,1-.72.16h0A1.72,1.72,0,0,1,43.49,210.78Zm-2.85-6.18a1.69,1.69,0,0,1,.83-2.25h0a1.7,1.7,0,0,1,2.25.83h0a1.69,1.69,0,0,1-.83,2.25h0a1.6,1.6,0,0,1-.71.16h0A1.67,1.67,0,0,1,40.64,204.6Zm-2.86-6.16a1.69,1.69,0,0,1,.83-2.25h0a1.7,1.7,0,0,1,2.26.82h0a1.71,1.71,0,0,1-.83,2.26h0a1.87,1.87,0,0,1-.72.16h0A1.72,1.72,0,0,1,37.78,198.44Zm3.59-4.86a1.7,1.7,0,0,1-.29-2.39h0a1.7,1.7,0,0,1,2.38-.29h0a1.69,1.69,0,0,1,.29,2.39h0a1.65,1.65,0,0,1-1.33.64h0A1.7,1.7,0,0,1,41.37,193.58Zm4.18-5.36a1.7,1.7,0,0,1-.29-2.39h0a1.7,1.7,0,0,1,2.38-.29h0a1.69,1.69,0,0,1,.29,2.38h0a1.67,1.67,0,0,1-1.33.65h0A1.7,1.7,0,0,1,45.55,188.22Zm4.17-5.37a1.69,1.69,0,0,1-.29-2.37h0a1.69,1.69,0,0,1,2.39-.3h0a1.69,1.69,0,0,1,.29,2.38h0a1.68,1.68,0,0,1-1.33.66h0A1.69,1.69,0,0,1,49.72,182.85Zm4.18-5.35a1.7,1.7,0,0,1-.29-2.38h0a1.7,1.7,0,0,1,2.39-.31h0a1.71,1.71,0,0,1,.29,2.39h0a1.7,1.7,0,0,1-1.33.66h0A1.81,1.81,0,0,1,53.9,177.5Zm4.18-5.36a1.71,1.71,0,0,1-.29-2.39h0a1.71,1.71,0,0,1,2.39-.3h0a1.71,1.71,0,0,1,.29,2.39h0a1.71,1.71,0,0,1-1.35.65h0A1.69,1.69,0,0,1,58.08,172.14Zm4.18-5.37a1.7,1.7,0,0,1-.29-2.38h0a1.69,1.69,0,0,1,2.38-.29h0a1.68,1.68,0,0,1,.29,2.37h0a1.65,1.65,0,0,1-1.33.66h0A1.65,1.65,0,0,1,62.26,166.77Zm4.18-5.36a1.69,1.69,0,0,1-.29-2.38h0a1.7,1.7,0,0,1,2.38-.3h0a1.7,1.7,0,0,1,.29,2.39h0a1.69,1.69,0,0,1-1.34.65h0A1.71,1.71,0,0,1,66.44,161.41Zm4.18-5.36a1.71,1.71,0,0,1-.3-2.39h0a1.71,1.71,0,0,1,2.39-.29h0a1.71,1.71,0,0,1,.29,2.39h0a1.69,1.69,0,0,1-1.34.64h0A1.67,1.67,0,0,1,70.62,156.05Zm4.17-5.35a1.7,1.7,0,0,1-.29-2.39h0a1.7,1.7,0,0,1,2.39-.3h0a1.7,1.7,0,0,1,.29,2.38h0a1.72,1.72,0,0,1-1.35.66h0A1.78,1.78,0,0,1,74.79,150.7ZM79,145.33a1.69,1.69,0,0,1-.29-2.38h0a1.69,1.69,0,0,1,2.38-.3h0a1.7,1.7,0,0,1,.3,2.38h0a1.72,1.72,0,0,1-1.35.66h0A1.64,1.64,0,0,1,79,145.33ZM83.15,140a1.68,1.68,0,0,1-.29-2.38h0a1.7,1.7,0,0,1,2.38-.31h0a1.7,1.7,0,0,1,.29,2.39h0a1.69,1.69,0,0,1-1.34.66h0A1.71,1.71,0,0,1,83.15,140Z" transform="translate(-37.63 -36.57)"/><path class="cls-3" d="M410.92,248a1.71,1.71,0,0,1-.35-2.38h0a1.69,1.69,0,0,1,2.38-.35h0a1.68,1.68,0,0,1,.35,2.36h0a1.68,1.68,0,0,1-1.37.7h0A1.81,1.81,0,0,1,410.92,248Zm4.06-5.46a1.69,1.69,0,0,1-.35-2.38h0a1.7,1.7,0,0,1,2.38-.35h0a1.71,1.71,0,0,1,.35,2.38h0a1.7,1.7,0,0,1-1.37.68h0A1.74,1.74,0,0,1,415,242.53Zm4-5.46a1.7,1.7,0,0,1-.33-2.38h0a1.71,1.71,0,0,1,2.38-.35h0a1.69,1.69,0,0,1,.35,2.38h0a1.67,1.67,0,0,1-1.36.69h0A1.78,1.78,0,0,1,419,237.07Zm4.06-5.46a1.69,1.69,0,0,1-.35-2.37h0a1.69,1.69,0,0,1,2.38-.35h0a1.69,1.69,0,0,1,.35,2.38h0a1.7,1.7,0,0,1-1.36.69h0A1.78,1.78,0,0,1,423.08,231.61Zm4.06-5.45a1.71,1.71,0,0,1-.36-2.38h0a1.71,1.71,0,0,1,2.38-.35h0a1.7,1.7,0,0,1,.35,2.38h0a1.7,1.7,0,0,1-1.37.68h0A1.62,1.62,0,0,1,427.14,226.16Zm4.05-5.46a1.69,1.69,0,0,1-.35-2.38h0a1.7,1.7,0,0,1,2.38-.35h0a1.72,1.72,0,0,1,.35,2.38h0a1.71,1.71,0,0,1-1.37.69h0A1.68,1.68,0,0,1,431.19,220.7Zm4.06-5.45a1.7,1.7,0,0,1-.36-2.38h0a1.68,1.68,0,0,1,2.37-.35h0a1.7,1.7,0,0,1,.36,2.38h0a1.7,1.7,0,0,1-1.37.68h0A1.69,1.69,0,0,1,435.25,215.25Zm4-5.46a1.69,1.69,0,0,1-.34-2.38h0a1.71,1.71,0,0,1,2.38-.35h0a1.69,1.69,0,0,1,.35,2.38h0a1.68,1.68,0,0,1-1.36.69h0A1.71,1.71,0,0,1,439.29,209.79Zm4-5.46A1.72,1.72,0,0,1,443,202h0a1.72,1.72,0,0,1,2.38-.35h0a1.7,1.7,0,0,1,.35,2.38h0a1.66,1.66,0,0,1-1.35.69h0A1.72,1.72,0,0,1,443.34,204.33Zm4.06-5.45a1.71,1.71,0,0,1-.35-2.38h0a1.7,1.7,0,0,1,2.38-.35h0a1.71,1.71,0,0,1,.35,2.38h0a1.73,1.73,0,0,1-1.37.68h0A1.67,1.67,0,0,1,447.4,198.88Zm1.2-5.89h0a1.71,1.71,0,0,1,.43-2.37h0a1.71,1.71,0,0,1,2.37.44h0a1.69,1.69,0,0,1-.43,2.35h0a1.69,1.69,0,0,1-1,.31h0A1.7,1.7,0,0,1,448.6,193Zm-3.86-5.58h0a1.7,1.7,0,0,1,.43-2.37h0a1.7,1.7,0,0,1,2.37.43h0a1.69,1.69,0,0,1-.44,2.36h0a1.7,1.7,0,0,1-1,.3h0A1.69,1.69,0,0,1,444.74,187.41Zm-3.88-5.6h0a1.69,1.69,0,0,1,.43-2.35h0a1.68,1.68,0,0,1,2.37.42h0a1.7,1.7,0,0,1-.43,2.36h0a1.64,1.64,0,0,1-1,.31h0A1.68,1.68,0,0,1,440.86,181.81ZM437,176.24h0a1.71,1.71,0,0,1,.43-2.36h0a1.7,1.7,0,0,1,2.37.43h0a1.7,1.7,0,0,1-.43,2.36h0a1.76,1.76,0,0,1-1,.3h0A1.71,1.71,0,0,1,437,176.24Zm-3.87-5.6a1.66,1.66,0,0,1,.42-2.35h0a1.68,1.68,0,0,1,2.36.42h0a1.69,1.69,0,0,1-.43,2.36h0a1.62,1.62,0,0,1-1,.31h0A1.68,1.68,0,0,1,433.12,170.64Zm-3.88-5.58a1.69,1.69,0,0,1,.42-2.36h0a1.7,1.7,0,0,1,2.37.42h0a1.7,1.7,0,0,1-.43,2.37h0a1.7,1.7,0,0,1-1,.3h0A1.71,1.71,0,0,1,429.24,165.06Zm-3.87-5.59a1.69,1.69,0,0,1,.43-2.35h0a1.67,1.67,0,0,1,2.35.42h0a1.67,1.67,0,0,1-.43,2.36h0a1.6,1.6,0,0,1-1,.31h0A1.69,1.69,0,0,1,425.37,159.47Zm-3.88-5.58a1.7,1.7,0,0,1,.43-2.36h0a1.69,1.69,0,0,1,2.36.42h0a1.71,1.71,0,0,1-.42,2.37h0a1.72,1.72,0,0,1-1,.31h0A1.71,1.71,0,0,1,421.49,153.89Zm-3.87-5.58h0a1.69,1.69,0,0,1,.43-2.36h0a1.69,1.69,0,0,1,2.36.42h0a1.7,1.7,0,0,1-.42,2.37h0a1.76,1.76,0,0,1-1,.3h0A1.71,1.71,0,0,1,417.62,148.31Z" transform="translate(-37.63 -36.57)"/><path class="cls-4" d="M334.7,298.1a1.7,1.7,0,0,1-1.38-2h0a1.7,1.7,0,0,1,2-1.38h0a1.68,1.68,0,0,1,1.38,2h0a1.68,1.68,0,0,1-1.66,1.41h0ZM328,297h0a1.72,1.72,0,0,1-1.39-2h0a1.72,1.72,0,0,1,2-1.38h0a1.71,1.71,0,0,1,1.38,2h0a1.7,1.7,0,0,1-1.68,1.42h0Zm-6.7-1.16a1.7,1.7,0,0,1-1.39-2h0a1.7,1.7,0,0,1,2-1.38h0a1.7,1.7,0,0,1,1.38,2h0a1.71,1.71,0,0,1-1.67,1.41h0Zm-6.7-1.16h0a1.71,1.71,0,0,1-1.39-2h0a1.72,1.72,0,0,1,2-1.38h0a1.7,1.7,0,0,1,1.39,2h0a1.72,1.72,0,0,1-1.68,1.42h0A1.43,1.43,0,0,1,314.61,294.63Zm-6.7-1.15a1.7,1.7,0,0,1-1.38-2h0a1.69,1.69,0,0,1,2-1.38h0a1.69,1.69,0,0,1,1.38,2h0a1.69,1.69,0,0,1-1.66,1.41h0Zm-6.69-1.16a1.71,1.71,0,0,1-1.4-2h0a1.72,1.72,0,0,1,2-1.39h0a1.71,1.71,0,0,1,1.38,2h0a1.71,1.71,0,0,1-1.68,1.42h0Zm-6.7-1.15h0a1.7,1.7,0,0,1-1.39-2h0a1.7,1.7,0,0,1,2-1.39h0a1.69,1.69,0,0,1,1.39,2h0a1.69,1.69,0,0,1-1.67,1.41h0Zm-6.7-1.16a1.7,1.7,0,0,1-1.38-2h0a1.69,1.69,0,0,1,1.95-1.39h0a1.71,1.71,0,0,1,1.4,2h0a1.71,1.71,0,0,1-1.68,1.42h0Zm-6.7-1.15a1.69,1.69,0,0,1-1.38-2h0a1.71,1.71,0,0,1,2-1.4h0a1.71,1.71,0,0,1,1.38,2h0a1.68,1.68,0,0,1-1.66,1.4h0A1.51,1.51,0,0,1,281.12,288.86Zm-6.69-1.16h0a1.7,1.7,0,0,1-1.39-2h0a1.7,1.7,0,0,1,2-1.39h0a1.71,1.71,0,0,1,1.4,2h0a1.7,1.7,0,0,1-1.68,1.41h0A.89.89,0,0,1,274.43,287.7Zm-6.71-1.15h0a1.7,1.7,0,0,1-1.38-2h0a1.71,1.71,0,0,1,2-1.4h0a1.72,1.72,0,0,1,1.39,2h0a1.7,1.7,0,0,1-1.67,1.4h0A1.46,1.46,0,0,1,267.72,286.55ZM261,285.39a1.7,1.7,0,0,1-1.38-2h0a1.69,1.69,0,0,1,2-1.39h0a1.72,1.72,0,0,1,1.39,2h0a1.7,1.7,0,0,1-1.68,1.4h0A1.42,1.42,0,0,1,261,285.39Zm-6.7-1.15h0a1.69,1.69,0,0,1-1.38-2h0a1.7,1.7,0,0,1,2-1.39h0a1.7,1.7,0,0,1,1.38,2h0a1.69,1.69,0,0,1-1.67,1.41h0A1.42,1.42,0,0,1,254.33,284.24Zm-6.69-1.16a1.7,1.7,0,0,1-1.39-2h0a1.68,1.68,0,0,1,2-1.38h0a1.7,1.7,0,0,1,1.39,2h0a1.69,1.69,0,0,1-1.68,1.4h0A1.32,1.32,0,0,1,247.64,283.08Zm-6.71-1.15h0a1.71,1.71,0,0,1-1.38-2h0a1.71,1.71,0,0,1,2-1.38h0a1.69,1.69,0,0,1,1.39,2h0a1.7,1.7,0,0,1-1.67,1.41h0A1.51,1.51,0,0,1,240.93,281.93Zm-6.69-1.16h0a1.69,1.69,0,0,1-1.38-2h0a1.68,1.68,0,0,1,2-1.38h0a1.69,1.69,0,0,1,1.38,2h0a1.71,1.71,0,0,1-1.68,1.41h0Zm-6.7-1.16a1.69,1.69,0,0,1-1.39-2h0a1.7,1.7,0,0,1,2-1.38h0a1.69,1.69,0,0,1,1.38,2h0a1.69,1.69,0,0,1-1.67,1.42h0A1,1,0,0,1,227.54,279.61Zm-6.7-1.15h0a1.69,1.69,0,0,1-1.38-2h0a1.69,1.69,0,0,1,2-1.38h0a1.71,1.71,0,0,1,1.38,2h0a1.71,1.71,0,0,1-1.68,1.41h0A1.43,1.43,0,0,1,220.84,278.46Zm-6.7-1.16a1.69,1.69,0,0,1-1.38-2h0a1.7,1.7,0,0,1,2-1.38h0a1.7,1.7,0,0,1,1.39,2h0a1.7,1.7,0,0,1-1.67,1.42h0A1.08,1.08,0,0,1,214.14,277.3Zm-6.69-1.14a1.7,1.7,0,0,1-1.38-2h0a1.69,1.69,0,0,1,2-1.38h0a1.7,1.7,0,0,1,1.38,2h0a1.7,1.7,0,0,1-1.67,1.41h0Zm-6.7-1.16a1.7,1.7,0,0,1-1.39-2h0a1.71,1.71,0,0,1,2-1.38h0a1.7,1.7,0,0,1,1.38,2h0A1.7,1.7,0,0,1,201,275h0Zm-6.7-1.15h0a1.7,1.7,0,0,1-1.38-2h0a1.69,1.69,0,0,1,2-1.38h0a1.7,1.7,0,0,1,1.39,2h0a1.71,1.71,0,0,1-1.68,1.41h0Zm-6.7-1.16a1.69,1.69,0,0,1-1.38-2h0a1.69,1.69,0,0,1,2-1.38h0a1.69,1.69,0,0,1,1.38,2h0a1.69,1.69,0,0,1-1.66,1.42h0Zm-6.69-1.15h0a1.7,1.7,0,0,1-1.39-2h0a1.71,1.71,0,0,1,2-1.38h0a1.7,1.7,0,0,1,1.38,1.95h0a1.7,1.7,0,0,1-1.68,1.42h0Zm-6.7-1.16a1.7,1.7,0,0,1-1.39-2h0a1.7,1.7,0,0,1,2-1.39h0a1.7,1.7,0,0,1,1.38,2h0a1.7,1.7,0,0,1-1.67,1.42h0Z" transform="translate(-37.63 -36.57)"/><path class="cls-4" d="M355.23,207.89a1.7,1.7,0,0,1-.66-2.31h0a1.7,1.7,0,0,1,2.31-.66h0a1.7,1.7,0,0,1,.66,2.31h0a1.68,1.68,0,0,1-1.49.87h0A1.62,1.62,0,0,1,355.23,207.89Zm-5.94-3.3h0a1.7,1.7,0,0,1-.67-2.31h0a1.72,1.72,0,0,1,2.31-.66h0a1.7,1.7,0,0,1,.67,2.32h0a1.71,1.71,0,0,1-1.49.87h0A1.66,1.66,0,0,1,349.29,204.59Zm-5.94-3.29h0a1.7,1.7,0,0,1-.66-2.32h0a1.67,1.67,0,0,1,2.3-.65h0a1.69,1.69,0,0,1,.67,2.3h0a1.71,1.71,0,0,1-1.49.88h0A1.72,1.72,0,0,1,343.35,201.3Zm-6-3.3h0a1.69,1.69,0,0,1-.66-2.3h0a1.7,1.7,0,0,1,2.31-.67h0a1.7,1.7,0,0,1,.66,2.31h0a1.66,1.66,0,0,1-1.48.87h0A1.75,1.75,0,0,1,337.4,198Zm-5.94-3.31a1.68,1.68,0,0,1-.65-2.31h0a1.7,1.7,0,0,1,2.3-.66h0a1.7,1.7,0,0,1,.66,2.31h0a1.69,1.69,0,0,1-1.48.88h0A1.66,1.66,0,0,1,331.46,194.69Zm-5.94-3.29h0a1.71,1.71,0,0,1-.66-2.32h0a1.7,1.7,0,0,1,2.31-.65h0a1.7,1.7,0,0,1,.66,2.31h0a1.71,1.71,0,0,1-1.49.87h0A1.72,1.72,0,0,1,325.52,191.4Zm-5.94-3.3h0a1.7,1.7,0,0,1-.67-2.31h0a1.69,1.69,0,0,1,2.31-.66h0a1.7,1.7,0,0,1,.67,2.31h0a1.71,1.71,0,0,1-1.49.87h0A1.62,1.62,0,0,1,319.58,188.1Zm-5.95-3.3h0a1.7,1.7,0,0,1-.65-2.31h0a1.67,1.67,0,0,1,2.31-.65h0a1.68,1.68,0,0,1,.65,2.29h0a1.68,1.68,0,0,1-1.48.89h0A1.66,1.66,0,0,1,313.63,184.8Zm-5.93-3.29h0a1.69,1.69,0,0,1-.67-2.3h0a1.69,1.69,0,0,1,2.31-.67h0a1.69,1.69,0,0,1,.66,2.31h0a1.69,1.69,0,0,1-1.49.87h0A1.76,1.76,0,0,1,307.7,181.51Zm-5.95-3.31h0a1.69,1.69,0,0,1-.66-2.31h0a1.7,1.7,0,0,1,2.3-.66h0a1.69,1.69,0,0,1,.67,2.31h0a1.7,1.7,0,0,1-1.48.87h0A1.63,1.63,0,0,1,301.75,178.2Zm-5.95-3.3h0a1.7,1.7,0,0,1-.65-2.31h0a1.71,1.71,0,0,1,2.31-.66h0a1.71,1.71,0,0,1,.65,2.32h0a1.69,1.69,0,0,1-1.48.87h0A1.66,1.66,0,0,1,295.8,174.9Zm-5.93-3.29a1.71,1.71,0,0,1-.67-2.32h0a1.68,1.68,0,0,1,2.31-.65h0a1.69,1.69,0,0,1,.67,2.3h0a1.73,1.73,0,0,1-1.5.88h0A1.72,1.72,0,0,1,289.87,171.61Zm-5.95-3.3a1.72,1.72,0,0,1-.66-2.31h0a1.71,1.71,0,0,1,2.32-.67h0a1.71,1.71,0,0,1,.65,2.31h0a1.68,1.68,0,0,1-1.48.89h0A1.75,1.75,0,0,1,283.92,168.31ZM278,165a1.69,1.69,0,0,1-.65-2.3h0a1.71,1.71,0,0,1,2.31-.67h0a1.69,1.69,0,0,1,.65,2.31h0a1.68,1.68,0,0,1-1.48.88h0A1.75,1.75,0,0,1,278,165ZM272,161.71h0a1.7,1.7,0,0,1-.66-2.31h0a1.7,1.7,0,0,1,2.31-.66h0a1.7,1.7,0,0,1,.66,2.31h0a1.72,1.72,0,0,1-1.48.87h0A1.73,1.73,0,0,1,272,161.71Zm-6-3.3h0a1.71,1.71,0,0,1-.66-2.31h0a1.71,1.71,0,0,1,2.32-.66h0a1.69,1.69,0,0,1,.65,2.31h0a1.67,1.67,0,0,1-1.48.87h0A1.63,1.63,0,0,1,266.09,158.41Zm-5.93-3.3a1.69,1.69,0,0,1-.67-2.31h0a1.68,1.68,0,0,1,2.31-.65h0a1.69,1.69,0,0,1,.67,2.29h0a1.72,1.72,0,0,1-1.5.89h0A1.62,1.62,0,0,1,260.16,155.11Zm-6-3.29h0a1.7,1.7,0,0,1-.66-2.3h0a1.69,1.69,0,0,1,2.31-.67h0a1.7,1.7,0,0,1,.66,2.31h0A1.66,1.66,0,0,1,255,152h0A1.85,1.85,0,0,1,254.21,151.82Zm-6-3.31a1.71,1.71,0,0,1-.66-2.31h0a1.72,1.72,0,0,1,2.32-.66h0a1.68,1.68,0,0,1,.65,2.31h0a1.67,1.67,0,0,1-1.48.87h0A1.71,1.71,0,0,1,248.26,148.51Zm-5.93-3.3a1.68,1.68,0,0,1-.66-2.31h0a1.7,1.7,0,0,1,2.31-.65h0a1.7,1.7,0,0,1,.66,2.31h0a1.74,1.74,0,0,1-1.49.87h0A1.63,1.63,0,0,1,242.33,145.21Zm-6-3.29a1.71,1.71,0,0,1-.66-2.31h0A1.71,1.71,0,0,1,238,139h0a1.69,1.69,0,0,1,.66,2.31h0a1.7,1.7,0,0,1-1.48.87h0A1.73,1.73,0,0,1,236.38,141.92Zm-5.94-3.3a1.68,1.68,0,0,1-.65-2.31h0a1.68,1.68,0,0,1,2.31-.66h0a1.69,1.69,0,0,1,.66,2.3h0a1.69,1.69,0,0,1-1.48.89h0A1.66,1.66,0,0,1,230.44,138.62Zm-5.94-3.3h0a1.69,1.69,0,0,1-.66-2.3h0a1.7,1.7,0,0,1,2.31-.67h0a1.72,1.72,0,0,1,.66,2.32h0a1.69,1.69,0,0,1-1.49.87h0A1.72,1.72,0,0,1,224.5,135.32Zm-5.94-3.3a1.7,1.7,0,0,1-.67-2.31h0a1.71,1.71,0,0,1,2.31-.66h0a1.69,1.69,0,0,1,.66,2.31h0a1.7,1.7,0,0,1-1.48.87h0A1.72,1.72,0,0,1,218.56,132Zm-5.95-3.3h0a1.69,1.69,0,0,1-.65-2.31h0a1.7,1.7,0,0,1,2.31-.66h0a1.7,1.7,0,0,1,.65,2.31h0a1.69,1.69,0,0,1-1.48.88h0A1.66,1.66,0,0,1,212.61,128.72Z" transform="translate(-37.63 -36.57)"/><path class="cls-4" d="M157.64,159.68a1.71,1.71,0,0,1-.17-2.4h0a1.7,1.7,0,0,1,2.4-.16h0a1.71,1.71,0,0,1,.16,2.4h0a1.69,1.69,0,0,1-1.28.58h0A1.67,1.67,0,0,1,157.64,159.68Zm4.46-5.12a1.7,1.7,0,0,1-.15-2.4h0a1.71,1.71,0,0,1,2.4-.16h0a1.71,1.71,0,0,1,.16,2.4h0a1.72,1.72,0,0,1-1.28.58h0A1.74,1.74,0,0,1,162.1,154.56Zm4.48-5.12a1.71,1.71,0,0,1-.16-2.4h0a1.69,1.69,0,0,1,2.39-.16h0a1.71,1.71,0,0,1,.17,2.4h0a1.74,1.74,0,0,1-1.28.58h0A1.7,1.7,0,0,1,166.58,149.44Zm4.47-5.12a1.71,1.71,0,0,1-.17-2.4h0a1.71,1.71,0,0,1,2.4-.16h0a1.69,1.69,0,0,1,.16,2.4h0a1.69,1.69,0,0,1-1.28.58h0A1.69,1.69,0,0,1,171.05,144.32Zm4.47-5.12a1.69,1.69,0,0,1-.16-2.4h0a1.69,1.69,0,0,1,2.39-.16h0a1.71,1.71,0,0,1,.17,2.4h0a1.72,1.72,0,0,1-1.28.58h0A1.7,1.7,0,0,1,175.52,139.2Zm4.47-5.12a1.7,1.7,0,0,1-.16-2.4h0a1.69,1.69,0,0,1,2.39-.16h0a1.7,1.7,0,0,1,.17,2.4h0a1.73,1.73,0,0,1-1.29.58h0A1.67,1.67,0,0,1,180,134.08Zm4.46-5.12a1.7,1.7,0,0,1-.16-2.39h0a1.7,1.7,0,0,1,2.41-.16h0a1.7,1.7,0,0,1,.15,2.4h0a1.7,1.7,0,0,1-1.27.58h0A1.74,1.74,0,0,1,184.45,129Z" transform="translate(-37.63 -36.57)"/><path class="cls-3" d="M309.39,320.49c-26.83-8.37-43.22-17.3-43.22-17.3l-18.32,1.71-18.32-1.71s-16.38,8.93-43.21,17.3S149,362,152.65,393.56c0,0,25.52,23.32,92.18,24.66v.06h6v-.06c66.66-1.34,92.18-24.66,92.18-24.66C346.73,362,336.21,328.86,309.39,320.49Z" transform="translate(-37.63 -36.57)"/><path class="cls-7" d="M271.36,273.09l-22.57-2.25-22.57,2.25s3.77,21.44-2.25,38c0,0,7.52,9.41,24.82,9.41s24.83-9.41,24.83-9.41C267.6,294.53,271.36,273.09,271.36,273.09Z" transform="translate(-37.63 -36.57)"/><path class="cls-8" d="M271.36,273.09l-22.57-2.25-22.57,2.25a97.8,97.8,0,0,1,1.16,15.49,46.38,46.38,0,0,0,8.87,10c4.62,3.76,13.28,4.62,15.55,4.62s10.93-.86,15.55-4.62a38.5,38.5,0,0,0,3.14-2.89A99.88,99.88,0,0,1,271.36,273.09Z" transform="translate(-37.63 -36.57)"/><path class="cls-7" d="M247.66,190.53c-22.85,0-37.8,18.52-37.8,41.37,0,17.14,8.41,41.85,22.26,53.13,4.61,3.76,13.27,4.61,15.54,4.61s10.94-.85,15.55-4.61c13.85-11.28,22.26-36,22.26-53.13C285.47,209.05,270.52,190.53,247.66,190.53Z" transform="translate(-37.63 -36.57)"/><path class="cls-3" d="M274.18,201.34c0-7.32-11.87-13.26-26.52-13.26s-26.51,5.94-26.51,13.26S233,214.6,247.66,214.6,274.18,208.66,274.18,201.34Z" transform="translate(-37.63 -36.57)"/><path class="cls-3" d="M229.61,205.57s-18.93,8.31-18.07,41c0,0-4.22-10.78-3.37-26.3s17.08-26,17.08-26Z" transform="translate(-37.63 -36.57)"/><path class="cls-3" d="M265.72,205.57s18.93,8.31,18.07,41c0,0,4.22-10.78,3.37-26.3s-17.08-26-17.08-26Z" transform="translate(-37.63 -36.57)"/><path class="cls-3" d="M217.2,198.8s-1.55-9.46,12-16.08c20.21-9.87,51.51,2,56.42,34.17C285.6,216.89,252.08,192.88,217.2,198.8Z" transform="translate(-37.63 -36.57)"/><path class="cls-3" d="M223.68,194.26s-4.62-3.72-12.41,4.54-3.05,30.5-3.05,30.5,9.82-30,21.39-31.36-7.5-3.68-7.5-3.68" transform="translate(-37.63 -36.57)"/><path class="cls-3" d="M271.17,194.26s4.63-3.72,12.42,4.54,3.05,30.5,3.05,30.5-9.82-30-21.39-31.36,7.5-3.68,7.5-3.68" transform="translate(-37.63 -36.57)"/><path class="cls-3" d="M299.52,248.94c-1.16,10.53-11,18.08-16.31,17.5s-3.92-9.07-2.76-19.6,1.69-19.11,7-18.53S300.68,238.41,299.52,248.94Z" transform="translate(-37.63 -36.57)"/><path class="cls-4" d="M285,246.84c1-8.56,1.48-15.82,4.46-17.94a6.51,6.51,0,0,0-2-.59c-5.27-.58-5.8,8-7,18.53s-2.51,19,2.76,19.6a7.53,7.53,0,0,0,3.11-.41C282.73,264.12,283.92,256.3,285,246.84Z" transform="translate(-37.63 -36.57)"/><path class="cls-3" d="M196.19,248.94c1.16,10.53,11,18.08,16.31,17.5s3.92-9.07,2.76-19.6-1.7-19.11-7-18.53S195,238.41,196.19,248.94Z" transform="translate(-37.63 -36.57)"/><path class="cls-4" d="M215.26,246.84c-1.16-10.53-1.7-19.11-7-18.53a6.64,6.64,0,0,0-2,.59c3,2.12,3.52,9.38,4.46,17.94,1,9.46,2.24,17.28-1.35,19.19a7.53,7.53,0,0,0,3.11.41C217.76,265.86,216.42,257.37,215.26,246.84Z" transform="translate(-37.63 -36.57)"/><path class="cls-3" d="M291.22,234.87l-3.22-1c.1-.31,9.9-31.17-3.79-50-7.1-9.78-19.4-14.74-36.55-14.74s-29.44,5-36.55,14.75c-13.69,18.86-3.88,49.68-3.78,50l-3.22,1.05c-.43-1.33-10.43-32.78,4.26-53,7.78-10.72,21-16.15,39.29-16.15s31.52,5.43,39.3,16.15C301.65,202.09,291.65,233.54,291.22,234.87Z" transform="translate(-37.63 -36.57)"/><path class="cls-3" d="M213.76,183.35a5.07,5.07,0,0,1-3.48-8.77c8.64-8.14,21.21-12.27,37.38-12.27,15.85,0,28.25,4,36.87,11.78a5.08,5.08,0,0,1-6.83,7.53c-6.69-6.07-16.79-9.15-30-9.15-13.49,0-23.73,3.2-30.42,9.5A5.07,5.07,0,0,1,213.76,183.35Z" transform="translate(-37.63 -36.57)"/><path class="cls-3" d="M251.8,283.25V281c16,0,27.79-4.08,34.21-11.82a20.4,20.4,0,0,0,4.91-11.52l2.26,0a22.47,22.47,0,0,1-5.43,12.93C283,276.38,272.84,283.25,251.8,283.25Z" transform="translate(-37.63 -36.57)"/><path class="cls-3" d="M257.45,281.75c0,2.49-3.29,4.51-7.34,4.51s-7.34-2-7.34-4.51,3.29-4.52,7.34-4.52S257.45,279.25,257.45,281.75Z" transform="translate(-37.63 -36.57)"/><path class="cls-9" d="M325.55,380.83c-2.73,4.1-.23-15.47-1.37-25.71,0,0-1.46,27.32-6.65,52q2.6-1,4.92-1.92c2.68-9.67,6.54-25.18,8.1-39.36C330.55,365.82,328.28,376.74,325.55,380.83Zm-150.88,0c-2.73-4.09-5-15-5-15,1.67,15.19,6,31.9,8.65,41.33,1.51.55,3.08,1.1,4.73,1.64-5.49-25.08-7-53.67-7-53.67C174.9,365.36,177.4,384.93,174.67,380.83Z" transform="translate(-37.63 -36.57)"/></g></g></svg>